<svg xmlns="http://www.w3.org/2000/svg" width="118" height="23" viewBox="0 0 118 23" fill="none">
<path d="M48.3153 3.83887C49.7911 3.83887 50.9698 4.36593 51.8515 5.42005C52.7331 6.47418 53.1748 7.88484 53.1763 9.65204V18.346H49.8594V9.90782C49.8594 9.06039 49.6709 8.40157 49.2937 7.93134C49.0919 7.69153 48.8441 7.50385 48.5681 7.38187C48.2921 7.25988 47.9948 7.20665 47.6977 7.22601C47.366 7.20702 47.0347 7.27088 46.7288 7.41276C46.4229 7.55464 46.1505 7.77084 45.932 8.04502C45.5124 8.58931 45.3026 9.37904 45.3026 10.4142V18.346H41.9786V9.90782C41.9786 9.06039 41.79 8.40157 41.4128 7.93134C41.2111 7.69153 40.9633 7.50385 40.6873 7.38187C40.4113 7.25988 40.114 7.20665 39.8169 7.22601C39.486 7.21189 39.1564 7.2793 38.8525 7.42328C38.5485 7.56726 38.2779 7.78414 38.0606 8.05794C37.6245 8.61342 37.4076 9.39885 37.4052 10.4142V18.346H34.0742V4.23417H37.3958V5.73009C38.169 4.46928 39.3619 3.83887 40.9744 3.83887C42.5868 3.83887 43.7545 4.51406 44.4775 5.86444C45.3199 4.51234 46.5991 3.83715 48.3153 3.83887Z" fill="#1C1C1C"/>
<path d="M66.986 16.5968C65.7043 18.0042 63.9649 18.796 62.1506 18.798C60.3362 18.7999 58.5954 18.0118 57.3112 16.6071C56.027 15.2024 55.3045 13.2962 55.3027 11.3077C55.301 9.31917 56.02 7.41135 57.3017 6.00391C58.5835 4.59646 60.3228 3.80468 62.1372 3.80274C63.9516 3.8008 65.6924 4.58887 66.9766 5.99357C68.2608 7.39828 68.9833 9.30456 68.985 11.293C68.9868 13.2815 68.2677 15.1894 66.986 16.5968ZM59.645 14.0984C60.3174 14.8046 61.2126 15.1988 62.1439 15.1988C63.0751 15.1988 63.9704 14.8046 64.6428 14.0984C65.2882 13.3394 65.6471 12.3405 65.6471 11.3029C65.6471 10.2654 65.2882 9.26645 64.6428 8.50745C63.9704 7.80128 63.0751 7.40704 62.1439 7.40704C61.2126 7.40704 60.3174 7.80128 59.645 8.50745C59.0157 9.2752 58.6675 10.2708 58.6675 11.3029C58.6675 12.335 59.0157 13.3307 59.645 14.0984Z" fill="#1C1C1C"/>
<path d="M85.5529 3.83887C87.0318 3.83887 88.2105 4.36593 89.089 5.42005C89.9675 6.47418 90.4099 7.88484 90.4162 9.65204V18.346H87.0946V9.90782C87.0946 9.06039 86.9037 8.40157 86.5265 7.93134C86.3248 7.69153 86.0769 7.50385 85.8009 7.38187C85.5249 7.25988 85.2276 7.20665 84.9305 7.22601C84.5992 7.20684 84.2682 7.27063 83.9626 7.41254C83.6571 7.55445 83.3851 7.77074 83.1672 8.04502C82.7452 8.59017 82.533 9.38076 82.5354 10.4142V18.346H79.2185V9.90782C79.2185 9.06039 79.0299 8.40157 78.6527 7.93134C78.4504 7.69176 78.2021 7.50427 77.9257 7.38232C77.6494 7.26037 77.3518 7.20699 77.0544 7.22601C76.7223 7.21034 76.3913 7.277 76.086 7.42105C75.7807 7.56509 75.5089 7.7828 75.2911 8.05794C74.8526 8.61428 74.6334 9.39971 74.6334 10.4142V18.346H71.3118V4.23417H74.6334V5.73009C75.4066 4.46928 76.6002 3.83887 78.2143 3.83887C79.8283 3.83887 80.996 4.51406 81.7174 5.86444C82.5566 4.51234 83.8351 3.83715 85.5529 3.83887Z" fill="#1C1C1C"/>
<path d="M104.224 16.5966C103.268 17.6449 102.05 18.3589 100.723 18.6484C99.3972 18.9379 98.0224 18.7897 96.773 18.2228C95.5235 17.6558 94.4556 16.6955 93.7042 15.4633C92.9528 14.231 92.5518 12.7822 92.5518 11.3002C92.5518 9.81808 92.9528 8.3693 93.7042 7.13706C94.4556 5.90483 95.5235 4.94449 96.773 4.37753C98.0224 3.81057 99.3972 3.66245 100.723 3.95191C102.05 4.24138 103.268 4.95541 104.224 6.00371C105.505 7.4087 106.225 9.31378 106.225 11.3002C106.225 13.2865 105.505 15.1916 104.224 16.5966ZM96.8852 14.0982C97.5572 14.8042 98.452 15.1984 99.3829 15.1984C100.314 15.1984 101.209 14.8042 101.881 14.0982C102.526 13.3392 102.885 12.3403 102.885 11.3027C102.885 10.2652 102.526 9.26625 101.881 8.50725C101.209 7.80125 100.314 7.40708 99.3829 7.40708C98.452 7.40708 97.5572 7.80125 96.8852 8.50725C96.2558 9.275 95.9077 10.2707 95.9077 11.3027C95.9077 12.3348 96.2558 13.3305 96.8852 14.0982Z" fill="#1C1C1C"/>
<path d="M111.334 8.24098C111.334 8.84211 112.115 9.35884 113.677 9.79116C114.183 9.90983 114.682 10.0652 115.169 10.2562C115.646 10.4569 116.1 10.717 116.522 11.0313C116.976 11.3597 117.344 11.8121 117.59 12.3438C117.856 12.9308 117.989 13.5796 117.977 14.235C117.977 15.6836 117.479 16.8031 116.482 17.5937C115.486 18.3843 114.255 18.7693 112.791 18.7486C110.149 18.7486 108.346 17.629 107.383 15.3899L110.277 13.6227C110.672 14.8439 111.513 15.4553 112.8 15.4571C113.985 15.4571 114.577 15.0523 114.577 14.2428C114.577 13.6416 113.796 13.1249 112.234 12.6926C111.727 12.5524 111.228 12.3799 110.74 12.1759C110.272 11.9746 109.823 11.7236 109.401 11.4266C108.939 11.1173 108.562 10.6761 108.311 10.1503C108.054 9.59003 107.925 8.96909 107.937 8.34174C107.937 6.9483 108.4 5.85715 109.327 5.06828C110.334 4.23631 111.571 3.80772 112.831 3.85397C113.828 3.84073 114.813 4.10756 115.69 4.62906C116.544 5.14554 117.248 5.91339 117.725 6.84582L114.896 8.5381C114.729 8.09474 114.442 7.71851 114.073 7.4609C113.705 7.20329 113.272 7.0769 112.835 7.09902C112.457 7.08354 112.084 7.1973 111.767 7.42455C111.638 7.50968 111.531 7.62912 111.455 7.77183C111.379 7.91454 111.337 8.0759 111.334 8.24098Z" fill="#1C1C1C"/>
<path d="M13.7061 2.94457C16.6362 2.94593 19.4458 4.22219 21.5177 6.49286C23.5895 8.76354 24.7541 11.8428 24.7553 15.0541C24.7553 16.2322 24.6021 17.1494 24.305 17.7824C24.0985 18.232 23.7631 18.595 23.3503 18.8158C22.082 19.5418 19.8142 19.6426 17.5251 19.6426C16.9452 19.6426 16.3464 19.6426 15.7264 19.6426C15.1064 19.6426 14.3968 19.6271 13.7061 19.6271C13.0154 19.6271 12.3388 19.6271 11.6835 19.6426C11.0281 19.6581 10.4647 19.6426 9.88475 19.6426C7.60749 19.6426 5.32787 19.5418 4.05958 18.8158C3.65107 18.5929 3.32002 18.2301 3.11662 17.7824C2.81958 17.1494 2.66871 16.2322 2.66871 15.0515C2.6684 13.4616 2.95383 11.8872 3.5087 10.4182C4.06357 8.94915 4.87701 7.61431 5.90258 6.48984C6.92816 5.36537 8.14578 4.4733 9.48592 3.86455C10.8261 3.25581 12.2625 2.94232 13.7132 2.94198L13.7061 2.94457ZM13.7179 0.14649C11.9319 0.144793 10.1631 0.528641 8.51254 1.27612C6.86193 2.0236 5.36182 3.12007 4.09786 4.50292C2.83389 5.88578 1.83083 7.52794 1.14594 9.33565C0.461053 11.1434 0.107748 13.0812 0.106201 15.0386L0.106201 15.0541C0.106201 21.8309 4.23403 22.4303 9.88475 22.4303C11.0965 22.4303 12.3789 22.4019 13.7061 22.4019C15.0333 22.4019 16.3134 22.4303 17.5251 22.4303C23.1829 22.4303 27.3037 21.8309 27.3037 15.0541C27.304 13.0967 26.9525 11.1585 26.2693 9.34997C25.5862 7.54148 24.5847 5.89818 23.322 4.51388C22.0594 3.12959 20.5603 2.03141 18.9104 1.28205C17.2605 0.532694 15.4921 0.146829 13.7061 0.14649H13.7179Z" fill="#D84339"/>
<path d="M13.7042 10.3954C13.4784 10.3954 13.2618 10.2972 13.1022 10.1222C12.9425 9.94733 12.8528 9.7101 12.8528 9.46273V5.73713C12.8643 5.4986 12.9588 5.27397 13.117 5.10957C13.2752 4.94516 13.4849 4.85352 13.703 4.85352C13.921 4.85352 14.1308 4.94516 14.289 5.10957C14.4472 5.27397 14.5417 5.4986 14.5532 5.73713V9.46273C14.5532 9.70965 14.4638 9.94649 14.3047 10.1213C14.1455 10.2962 13.9296 10.3947 13.7042 10.3954Z" fill="#D84339"/>
<path d="M18.9922 10.3962C18.8371 10.3965 18.685 10.3502 18.5524 10.2623C18.4197 10.1743 18.3117 10.0482 18.24 9.89756C18.24 9.87948 17.2968 7.97275 15.8632 7.18216C15.7635 7.1272 15.6746 7.05125 15.6017 6.95866C15.5288 6.86607 15.4732 6.75865 15.4382 6.64254C15.4032 6.52642 15.3894 6.40388 15.3976 6.28191C15.4057 6.15994 15.4358 6.04093 15.4859 5.93168C15.5361 5.82243 15.6054 5.72508 15.6899 5.64518C15.7744 5.56528 15.8724 5.50439 15.9784 5.46601C16.0844 5.42762 16.1962 5.41248 16.3075 5.42145C16.4189 5.43043 16.5275 5.46334 16.6272 5.5183C18.5583 6.58017 19.6925 8.93128 19.7467 9.03204C19.8144 9.17419 19.8475 9.33307 19.8428 9.49332C19.8382 9.65358 19.7958 9.80981 19.72 9.94693C19.6442 10.084 19.5373 10.1974 19.4098 10.2761C19.2824 10.3548 19.1385 10.3962 18.9922 10.3962Z" fill="#D84339"/>
<path d="M8.40667 10.3962C8.26014 10.3966 8.11599 10.3556 7.98818 10.2771C7.86036 10.1986 7.75321 10.0852 7.67709 9.94803C7.60097 9.81084 7.55846 9.65444 7.55368 9.49397C7.54889 9.33349 7.58199 9.17439 7.64978 9.03204C7.6993 8.93128 8.82874 6.58017 10.7693 5.5183C10.869 5.46334 10.9776 5.43043 11.0889 5.42145C11.2002 5.41248 11.3121 5.42762 11.4181 5.46601C11.524 5.50439 11.6221 5.56527 11.7066 5.64518C11.7911 5.72508 11.8604 5.82243 11.9105 5.93168C11.9607 6.04093 11.9907 6.15994 11.9989 6.28191C12.0071 6.40388 11.9933 6.52642 11.9583 6.64253C11.9232 6.75865 11.8677 6.86607 11.7947 6.95866C11.7218 7.05125 11.633 7.1272 11.5333 7.18216C10.1185 7.95725 9.17535 9.87689 9.15649 9.89756C9.08499 10.0478 8.97731 10.1737 8.84512 10.2616C8.71293 10.3495 8.5613 10.3961 8.40667 10.3962Z" fill="#D84339"/>
</svg>